<mxfile host="Electron" modified="2024-05-29T09:50:20.668Z" agent="Mozilla/5.0 (X11; Linux x86_64) AppleWebKit/537.36 (KHTML, like Gecko) draw.io/22.0.3 Chrome/118.0.5993.159 Electron/27.3.11 Safari/537.36" etag="bJcYojvY0rIJLQ8zVw0h" version="22.0.3" type="device">
  <diagram name="Page-1" id="PltH3wfFX6AIHZl8yf9l">
    <mxGraphModel dx="1354" dy="913" grid="1" gridSize="10" guides="1" tooltips="1" connect="1" arrows="1" fold="1" page="1" pageScale="1" pageWidth="1169" pageHeight="827" math="0" shadow="0">
      <root>
        <mxCell id="0" />
        <mxCell id="1" parent="0" />
        <mxCell id="6xSNXQIegf7Q926UobLi-67" value="" style="rounded=0;whiteSpace=wrap;html=1;" vertex="1" parent="1">
          <mxGeometry x="240" y="670" width="800" height="140" as="geometry" />
        </mxCell>
        <mxCell id="6xSNXQIegf7Q926UobLi-61" value="" style="rounded=0;whiteSpace=wrap;html=1;" vertex="1" parent="1">
          <mxGeometry x="240" y="530" width="800" height="140" as="geometry" />
        </mxCell>
        <mxCell id="6xSNXQIegf7Q926UobLi-60" value="" style="rounded=0;whiteSpace=wrap;html=1;" vertex="1" parent="1">
          <mxGeometry x="240" y="390" width="800" height="140" as="geometry" />
        </mxCell>
        <mxCell id="6xSNXQIegf7Q926UobLi-59" value="" style="rounded=0;whiteSpace=wrap;html=1;" vertex="1" parent="1">
          <mxGeometry x="240" y="250" width="800" height="140" as="geometry" />
        </mxCell>
        <mxCell id="6xSNXQIegf7Q926UobLi-58" value="" style="rounded=0;whiteSpace=wrap;html=1;" vertex="1" parent="1">
          <mxGeometry x="240" y="30" width="800" height="220" as="geometry" />
        </mxCell>
        <mxCell id="6xSNXQIegf7Q926UobLi-1" value="TSN Switch" style="image;html=1;image=img/lib/clip_art/networking/Switch_128x128.png" vertex="1" parent="1">
          <mxGeometry x="260" y="136" width="80" height="80" as="geometry" />
        </mxCell>
        <mxCell id="6xSNXQIegf7Q926UobLi-3" value="TSN Switch" style="image;html=1;image=img/lib/clip_art/networking/Switch_128x128.png;flipH=1;" vertex="1" parent="1">
          <mxGeometry x="940" y="136" width="80" height="80" as="geometry" />
        </mxCell>
        <mxCell id="6xSNXQIegf7Q926UobLi-4" value="Some Possible Hardware Configurations" style="text;html=1;strokeColor=none;fillColor=none;align=center;verticalAlign=middle;whiteSpace=wrap;rounded=0;strokeWidth=5;fontSize=17;" vertex="1" parent="1">
          <mxGeometry x="470" width="370" height="30" as="geometry" />
        </mxCell>
        <mxCell id="6xSNXQIegf7Q926UobLi-8" value="SDR" style="image;html=1;image=img/lib/clip_art/networking/Print_Server_Wireless_128x128.png;flipH=1;" vertex="1" parent="1">
          <mxGeometry x="523" y="126" width="86" height="80" as="geometry" />
        </mxCell>
        <mxCell id="6xSNXQIegf7Q926UobLi-9" value="Server&lt;br&gt;(UE)" style="image;points=[];aspect=fixed;html=1;align=center;shadow=0;dashed=0;image=img/lib/allied_telesis/computer_and_terminals/Server_Desktop.svg;" vertex="1" parent="1">
          <mxGeometry x="456.73" y="122" width="66.27" height="84" as="geometry" />
        </mxCell>
        <mxCell id="6xSNXQIegf7Q926UobLi-10" value="TSN capable&lt;br&gt;NIC" style="shadow=0;dashed=0;html=1;labelPosition=center;verticalLabelPosition=bottom;verticalAlign=top;align=center;outlineConnect=0;shape=mxgraph.veeam.3d.network_card;" vertex="1" parent="1">
          <mxGeometry x="410" y="156" width="38" height="40" as="geometry" />
        </mxCell>
        <mxCell id="6xSNXQIegf7Q926UobLi-12" value="SDR" style="image;html=1;image=img/lib/clip_art/networking/Print_Server_Wireless_128x128.png;flipH=0;" vertex="1" parent="1">
          <mxGeometry x="674" y="126" width="86" height="80" as="geometry" />
        </mxCell>
        <mxCell id="6xSNXQIegf7Q926UobLi-13" value="Server&lt;br&gt;(gNB)" style="image;points=[];aspect=fixed;html=1;align=center;shadow=0;dashed=0;image=img/lib/allied_telesis/computer_and_terminals/Server_Desktop.svg;flipH=0;" vertex="1" parent="1">
          <mxGeometry x="760" y="124" width="66.27" height="84" as="geometry" />
        </mxCell>
        <mxCell id="6xSNXQIegf7Q926UobLi-14" value="TSN capable&lt;br&gt;NIC" style="shadow=0;dashed=0;html=1;labelPosition=center;verticalLabelPosition=bottom;verticalAlign=top;align=center;outlineConnect=0;shape=mxgraph.veeam.3d.network_card;flipH=1;" vertex="1" parent="1">
          <mxGeometry x="830" y="156" width="38" height="40" as="geometry" />
        </mxCell>
        <mxCell id="6xSNXQIegf7Q926UobLi-15" value="" style="endArrow=none;html=1;rounded=0;exitX=1;exitY=0.5;exitDx=0;exitDy=0;strokeWidth=3;" edge="1" parent="1" source="6xSNXQIegf7Q926UobLi-1" target="6xSNXQIegf7Q926UobLi-10">
          <mxGeometry width="50" height="50" relative="1" as="geometry">
            <mxPoint x="560" y="246" as="sourcePoint" />
            <mxPoint x="610" y="196" as="targetPoint" />
          </mxGeometry>
        </mxCell>
        <mxCell id="6xSNXQIegf7Q926UobLi-16" value="" style="endArrow=none;html=1;rounded=0;exitX=0;exitY=0.5;exitDx=0;exitDy=0;entryX=-0.018;entryY=0.508;entryDx=0;entryDy=0;entryPerimeter=0;strokeWidth=3;" edge="1" parent="1" source="6xSNXQIegf7Q926UobLi-3" target="6xSNXQIegf7Q926UobLi-14">
          <mxGeometry width="50" height="50" relative="1" as="geometry">
            <mxPoint x="350" y="176" as="sourcePoint" />
            <mxPoint x="420" y="184" as="targetPoint" />
          </mxGeometry>
        </mxCell>
        <mxCell id="6xSNXQIegf7Q926UobLi-17" value="Server&lt;br&gt;(CN)" style="image;points=[];aspect=fixed;html=1;align=center;shadow=0;dashed=0;image=img/lib/allied_telesis/computer_and_terminals/Server_Desktop.svg;flipH=0;" vertex="1" parent="1">
          <mxGeometry x="860" y="40" width="66.27" height="84" as="geometry" />
        </mxCell>
        <mxCell id="6xSNXQIegf7Q926UobLi-19" value="" style="endArrow=none;html=1;rounded=0;exitX=1.036;exitY=0.164;exitDx=0;exitDy=0;exitPerimeter=0;strokeWidth=3;" edge="1" parent="1" source="6xSNXQIegf7Q926UobLi-13" target="6xSNXQIegf7Q926UobLi-17">
          <mxGeometry width="50" height="50" relative="1" as="geometry">
            <mxPoint x="950" y="174" as="sourcePoint" />
            <mxPoint x="879" y="186" as="targetPoint" />
          </mxGeometry>
        </mxCell>
        <mxCell id="6xSNXQIegf7Q926UobLi-20" value="" style="endArrow=none;html=1;rounded=0;exitX=0;exitY=0.5;exitDx=0;exitDy=0;entryX=0.996;entryY=0.779;entryDx=0;entryDy=0;entryPerimeter=0;strokeWidth=3;" edge="1" parent="1" source="6xSNXQIegf7Q926UobLi-3" target="6xSNXQIegf7Q926UobLi-17">
          <mxGeometry width="50" height="50" relative="1" as="geometry">
            <mxPoint x="980.0000000000002" y="171" as="sourcePoint" />
            <mxPoint x="910" y="116" as="targetPoint" />
          </mxGeometry>
        </mxCell>
        <mxCell id="6xSNXQIegf7Q926UobLi-21" style="edgeStyle=orthogonalEdgeStyle;rounded=0;orthogonalLoop=1;jettySize=auto;html=1;exitX=0.5;exitY=1;exitDx=0;exitDy=0;" edge="1" parent="1" source="6xSNXQIegf7Q926UobLi-4" target="6xSNXQIegf7Q926UobLi-4">
          <mxGeometry relative="1" as="geometry" />
        </mxCell>
        <mxCell id="6xSNXQIegf7Q926UobLi-22" value="TSN Switch" style="image;html=1;image=img/lib/clip_art/networking/Switch_128x128.png" vertex="1" parent="1">
          <mxGeometry x="260" y="274" width="80" height="80" as="geometry" />
        </mxCell>
        <mxCell id="6xSNXQIegf7Q926UobLi-23" value="TSN Switch" style="image;html=1;image=img/lib/clip_art/networking/Switch_128x128.png;flipH=1;" vertex="1" parent="1">
          <mxGeometry x="940" y="274" width="80" height="80" as="geometry" />
        </mxCell>
        <mxCell id="6xSNXQIegf7Q926UobLi-24" value="SDR" style="image;html=1;image=img/lib/clip_art/networking/Print_Server_Wireless_128x128.png;flipH=1;" vertex="1" parent="1">
          <mxGeometry x="523" y="264" width="86" height="80" as="geometry" />
        </mxCell>
        <mxCell id="6xSNXQIegf7Q926UobLi-25" value="Server&lt;br&gt;(UE)" style="image;points=[];aspect=fixed;html=1;align=center;shadow=0;dashed=0;image=img/lib/allied_telesis/computer_and_terminals/Server_Desktop.svg;" vertex="1" parent="1">
          <mxGeometry x="456.73" y="260" width="66.27" height="84" as="geometry" />
        </mxCell>
        <mxCell id="6xSNXQIegf7Q926UobLi-26" value="TSN capable&lt;br&gt;NIC" style="shadow=0;dashed=0;html=1;labelPosition=center;verticalLabelPosition=bottom;verticalAlign=top;align=center;outlineConnect=0;shape=mxgraph.veeam.3d.network_card;" vertex="1" parent="1">
          <mxGeometry x="410" y="294" width="38" height="40" as="geometry" />
        </mxCell>
        <mxCell id="6xSNXQIegf7Q926UobLi-27" value="SDR" style="image;html=1;image=img/lib/clip_art/networking/Print_Server_Wireless_128x128.png;flipH=0;" vertex="1" parent="1">
          <mxGeometry x="674" y="264" width="86" height="80" as="geometry" />
        </mxCell>
        <mxCell id="6xSNXQIegf7Q926UobLi-28" value="Server&lt;br&gt;(gNB + CN)" style="image;points=[];aspect=fixed;html=1;align=center;shadow=0;dashed=0;image=img/lib/allied_telesis/computer_and_terminals/Server_Desktop.svg;flipH=0;" vertex="1" parent="1">
          <mxGeometry x="760" y="262" width="66.27" height="84" as="geometry" />
        </mxCell>
        <mxCell id="6xSNXQIegf7Q926UobLi-29" value="TSN capable&lt;br&gt;NIC" style="shadow=0;dashed=0;html=1;labelPosition=center;verticalLabelPosition=bottom;verticalAlign=top;align=center;outlineConnect=0;shape=mxgraph.veeam.3d.network_card;flipH=1;" vertex="1" parent="1">
          <mxGeometry x="830" y="294" width="38" height="40" as="geometry" />
        </mxCell>
        <mxCell id="6xSNXQIegf7Q926UobLi-30" value="" style="endArrow=none;html=1;rounded=0;exitX=1;exitY=0.5;exitDx=0;exitDy=0;strokeWidth=3;" edge="1" parent="1" source="6xSNXQIegf7Q926UobLi-22" target="6xSNXQIegf7Q926UobLi-26">
          <mxGeometry width="50" height="50" relative="1" as="geometry">
            <mxPoint x="560" y="384" as="sourcePoint" />
            <mxPoint x="610" y="334" as="targetPoint" />
          </mxGeometry>
        </mxCell>
        <mxCell id="6xSNXQIegf7Q926UobLi-31" value="" style="endArrow=none;html=1;rounded=0;exitX=0;exitY=0.5;exitDx=0;exitDy=0;entryX=-0.018;entryY=0.508;entryDx=0;entryDy=0;entryPerimeter=0;strokeWidth=3;" edge="1" parent="1" source="6xSNXQIegf7Q926UobLi-23" target="6xSNXQIegf7Q926UobLi-29">
          <mxGeometry width="50" height="50" relative="1" as="geometry">
            <mxPoint x="350" y="314" as="sourcePoint" />
            <mxPoint x="420" y="322" as="targetPoint" />
          </mxGeometry>
        </mxCell>
        <mxCell id="6xSNXQIegf7Q926UobLi-35" style="edgeStyle=orthogonalEdgeStyle;rounded=0;orthogonalLoop=1;jettySize=auto;html=1;exitX=0.5;exitY=1;exitDx=0;exitDy=0;" edge="1" parent="1">
          <mxGeometry relative="1" as="geometry">
            <mxPoint x="653" y="226" as="sourcePoint" />
            <mxPoint x="653" y="226" as="targetPoint" />
          </mxGeometry>
        </mxCell>
        <mxCell id="6xSNXQIegf7Q926UobLi-36" value="TSN Switch" style="image;html=1;image=img/lib/clip_art/networking/Switch_128x128.png" vertex="1" parent="1">
          <mxGeometry x="260" y="414" width="80" height="80" as="geometry" />
        </mxCell>
        <mxCell id="6xSNXQIegf7Q926UobLi-37" value="TSN Switch" style="image;html=1;image=img/lib/clip_art/networking/Switch_128x128.png;flipH=1;" vertex="1" parent="1">
          <mxGeometry x="940" y="414" width="80" height="80" as="geometry" />
        </mxCell>
        <mxCell id="6xSNXQIegf7Q926UobLi-38" value="SDR" style="image;html=1;image=img/lib/clip_art/networking/Print_Server_Wireless_128x128.png;flipH=1;" vertex="1" parent="1">
          <mxGeometry x="523" y="404" width="86" height="80" as="geometry" />
        </mxCell>
        <mxCell id="6xSNXQIegf7Q926UobLi-39" value="Server&lt;br&gt;(UE)" style="image;points=[];aspect=fixed;html=1;align=center;shadow=0;dashed=0;image=img/lib/allied_telesis/computer_and_terminals/Server_Desktop.svg;" vertex="1" parent="1">
          <mxGeometry x="456.73" y="400" width="66.27" height="84" as="geometry" />
        </mxCell>
        <mxCell id="6xSNXQIegf7Q926UobLi-41" value="SDR" style="image;html=1;image=img/lib/clip_art/networking/Print_Server_Wireless_128x128.png;flipH=0;" vertex="1" parent="1">
          <mxGeometry x="674" y="404" width="86" height="80" as="geometry" />
        </mxCell>
        <mxCell id="6xSNXQIegf7Q926UobLi-42" value="Server&lt;br&gt;(gNB + CN)" style="image;points=[];aspect=fixed;html=1;align=center;shadow=0;dashed=0;image=img/lib/allied_telesis/computer_and_terminals/Server_Desktop.svg;flipH=0;" vertex="1" parent="1">
          <mxGeometry x="760" y="402" width="66.27" height="84" as="geometry" />
        </mxCell>
        <mxCell id="6xSNXQIegf7Q926UobLi-44" value="" style="endArrow=none;html=1;rounded=0;exitX=1;exitY=0.5;exitDx=0;exitDy=0;strokeWidth=3;entryX=-0.033;entryY=0.656;entryDx=0;entryDy=0;entryPerimeter=0;" edge="1" parent="1" source="6xSNXQIegf7Q926UobLi-36" target="6xSNXQIegf7Q926UobLi-39">
          <mxGeometry width="50" height="50" relative="1" as="geometry">
            <mxPoint x="560" y="524" as="sourcePoint" />
            <mxPoint x="410" y="454" as="targetPoint" />
          </mxGeometry>
        </mxCell>
        <mxCell id="6xSNXQIegf7Q926UobLi-45" value="" style="endArrow=none;html=1;rounded=0;exitX=0;exitY=0.5;exitDx=0;exitDy=0;entryX=1.056;entryY=0.623;entryDx=0;entryDy=0;entryPerimeter=0;strokeWidth=3;" edge="1" parent="1" source="6xSNXQIegf7Q926UobLi-37" target="6xSNXQIegf7Q926UobLi-42">
          <mxGeometry width="50" height="50" relative="1" as="geometry">
            <mxPoint x="350" y="454" as="sourcePoint" />
            <mxPoint x="868.684" y="454.32000000000016" as="targetPoint" />
          </mxGeometry>
        </mxCell>
        <mxCell id="6xSNXQIegf7Q926UobLi-48" value="SDR" style="image;html=1;image=img/lib/clip_art/networking/Print_Server_Wireless_128x128.png;flipH=1;" vertex="1" parent="1">
          <mxGeometry x="514.27" y="544" width="86" height="80" as="geometry" />
        </mxCell>
        <mxCell id="6xSNXQIegf7Q926UobLi-49" value="Server&lt;br&gt;(UE + PTPsim)" style="image;points=[];aspect=fixed;html=1;align=center;shadow=0;dashed=0;image=img/lib/allied_telesis/computer_and_terminals/Server_Desktop.svg;" vertex="1" parent="1">
          <mxGeometry x="448" y="540" width="66.27" height="84" as="geometry" />
        </mxCell>
        <mxCell id="6xSNXQIegf7Q926UobLi-50" value="SDR" style="image;html=1;image=img/lib/clip_art/networking/Print_Server_Wireless_128x128.png;flipH=0;" vertex="1" parent="1">
          <mxGeometry x="665.27" y="544" width="86" height="80" as="geometry" />
        </mxCell>
        <mxCell id="6xSNXQIegf7Q926UobLi-51" value="Server&lt;br&gt;(gNB + CN + PTPsim)" style="image;points=[];aspect=fixed;html=1;align=center;shadow=0;dashed=0;image=img/lib/allied_telesis/computer_and_terminals/Server_Desktop.svg;flipH=0;" vertex="1" parent="1">
          <mxGeometry x="751.27" y="542" width="66.27" height="84" as="geometry" />
        </mxCell>
        <mxCell id="6xSNXQIegf7Q926UobLi-63" value="Server&lt;br&gt;(UE + PTPsim + RFsim)" style="image;points=[];aspect=fixed;html=1;align=center;shadow=0;dashed=0;image=img/lib/allied_telesis/computer_and_terminals/Server_Desktop.svg;" vertex="1" parent="1">
          <mxGeometry x="448" y="680" width="66.27" height="84" as="geometry" />
        </mxCell>
        <mxCell id="6xSNXQIegf7Q926UobLi-65" value="Server&lt;br&gt;(gNB + CN + PTPsim + RFsim)" style="image;points=[];aspect=fixed;html=1;align=center;shadow=0;dashed=0;image=img/lib/allied_telesis/computer_and_terminals/Server_Desktop.svg;flipH=0;" vertex="1" parent="1">
          <mxGeometry x="751.27" y="682" width="66.27" height="84" as="geometry" />
        </mxCell>
        <mxCell id="6xSNXQIegf7Q926UobLi-66" value="" style="endArrow=none;html=1;rounded=0;exitX=-0.004;exitY=0.449;exitDx=0;exitDy=0;entryX=0.995;entryY=0.463;entryDx=0;entryDy=0;entryPerimeter=0;strokeWidth=3;exitPerimeter=0;dashed=1;" edge="1" parent="1" source="6xSNXQIegf7Q926UobLi-65" target="6xSNXQIegf7Q926UobLi-63">
          <mxGeometry width="50" height="50" relative="1" as="geometry">
            <mxPoint x="950" y="464" as="sourcePoint" />
            <mxPoint x="840" y="464" as="targetPoint" />
          </mxGeometry>
        </mxCell>
        <mxCell id="6xSNXQIegf7Q926UobLi-68" value="rfsimulator" style="edgeLabel;html=1;align=center;verticalAlign=middle;resizable=0;points=[];" vertex="1" connectable="0" parent="6xSNXQIegf7Q926UobLi-66">
          <mxGeometry x="0.0957" y="5" relative="1" as="geometry">
            <mxPoint x="19" y="6" as="offset" />
          </mxGeometry>
        </mxCell>
      </root>
    </mxGraphModel>
  </diagram>
</mxfile>
